<?xml version="1.0" encoding="UTF-8"?>
<svg width="334px" height="121px" viewBox="0 0 334 121" version="1.1" xmlns="http://www.w3.org/2000/svg" xmlns:xlink="http://www.w3.org/1999/xlink">
    <!-- Generator: Sketch 63.1 (92452) - https://sketch.com -->
    <title>Combined Shape</title>
    <desc>Created with Sketch.</desc>
    <g id="Page-1" stroke="none" stroke-width="1" fill="none" fill-rule="evenodd">
        <g id="Artboard" transform="translate(-627.000000, -323.000000)" fill="#2288FF" fill-rule="nonzero">
            <path d="M649,323 L648.999706,361.794067 C655.659867,358.079444 663.481133,356 671.96,356 C697.56,356 717.08,374.88 717.08,400.16 C717.08,425.44 698.2,443.84 671.96,443.84 C645.88,443.84 627,425.44 627,400.16 L627,323 L649,323 Z M762.203555,355.92 C788.814755,355.92 796.921667,369.719808 797.081144,388.159801 L797.083555,388.72 L797.083555,441.68 L777.563555,441.68 L776.123555,436.24 C771.803555,440.88 765.403555,443.76 755.803555,443.76 C738.843555,443.76 724.443555,433.36 724.443555,415.76 C724.443555,399.28 737.403555,388.08 756.923555,388.08 C765.230494,388.08 771.695,390.536576 774.813048,392.592079 L775.003555,392.72 L775.003555,387.28 C775.003555,379.92 769.563555,374.96 759.803555,374.96 C751.70842,374.96 744.219157,377.53496 738.072641,380.621637 L737.563555,380.88 L729.243555,365.84 C736.763555,360.72 749.403555,355.92 762.203555,355.92 Z M841.083555,355.92 C856.559417,355.92 865.315237,363.861868 869.440056,370.344918 L869.723555,370.8 L855.163555,381.68 L854.717437,381.132949 C852.078123,377.961481 847.527999,373.68 840.123555,373.68 C835.003555,373.68 831.483555,376.24 831.483555,380.4 C831.483555,393.68 871.163555,387.28 871.163555,417.2 C871.163555,433.52 857.083555,443.76 839.003555,443.76 C822.902405,443.76 812.757657,435.818132 808.121658,428.738213 L807.803555,428.24 L820.763555,416.72 C824.923555,421.52 830.523555,425.84 839.963555,425.84 C846.203555,425.84 850.203555,423.12 850.203555,418.32 C850.203555,405.52 810.683555,410.48 810.683555,380.72 C810.683555,365.2 823.963555,355.92 841.083555,355.92 Z M919.483555,355.92 C945.403555,355.92 960.123555,373.2 960.123555,400.56 C960.123555,401.893333 960.123555,403.226667 960.030962,404.56 L959.963555,405.36 L901.083555,405.36 C901.563555,416.56 910.523555,424.56 922.843555,424.56 C934.031434,424.56 940.563665,418.042094 943.051597,414.482169 L943.163555,414.32 L957.723555,425.36 C954.523555,431.28 943.323555,443.76 922.523555,443.76 C895.643555,443.76 878.523555,425.2 878.523555,400.08 C878.523555,374.8 895.643555,355.92 919.483555,355.92 Z M760.923555,403.44 C752.443555,403.44 746.523555,408.24 746.523555,415.12 C746.523555,422 752.763555,426.64 761.083555,426.64 C769.403555,426.64 775.483555,422.16 775.483555,415.12 C775.483555,407.76 769.403555,403.44 760.923555,403.44 Z M671.96,375.52 C658.68,375.52 649.08,385.76 649.08,400.16 C649.08,414.4 658.84,424.32 671.96,424.32 C685.24,424.32 695,414.4 695,400.16 C695,385.92 685.24,375.52 671.96,375.52 Z M919.803555,374 C909.527364,374 902.844076,381.185805 901.760286,390.618104 L901.723555,390.96 L937.723555,390.96 C937.243555,380.72 929.883555,374 919.803555,374 Z" id="Combined-Shape"></path>
        </g>
    </g>
</svg>